<svg width="4267" height="923" viewBox="0 0 4267 923" fill="none" xmlns="http://www.w3.org/2000/svg">
<rect width="4267" height="922.222" rx="118.064" fill="#363D4A"/>
<path d="M461.122 144.015L718.938 302.563V619.659L461.122 778.207L203.307 619.659V302.563L461.122 144.015Z" stroke="#C38EF1" stroke-width="97.5389"/>
<path d="M461.122 314.759L581.436 387.935V534.287L461.122 607.463L340.808 534.287V387.935L461.122 314.759Z" stroke="#6F5586" stroke-width="48.7695"/>
<path d="M881.195 650L999.542 351.596H1059.56L1176.64 650H1106.48L1016.87 402.316H1040.96L950.09 650H881.195ZM948.399 595.898V541.797H1111.13V595.898H948.399ZM1259.35 650V598.434H1329.51C1342.47 598.434 1352.62 594.63 1359.94 587.022C1367.27 579.414 1370.93 570.116 1370.93 559.126C1370.93 551.518 1369.24 544.756 1365.86 538.838C1362.48 532.921 1357.69 528.271 1351.49 524.89C1345.57 521.509 1338.25 519.818 1329.51 519.818H1259.35V469.52H1324.02C1335.01 469.52 1343.88 466.844 1350.64 461.49C1357.41 455.854 1360.79 447.401 1360.79 436.13C1360.79 425.14 1357.41 416.969 1350.64 411.615C1343.88 405.979 1335.01 403.162 1324.02 403.162H1259.35V351.596H1336.7C1355.86 351.596 1372.06 355.118 1385.3 362.163C1398.83 369.207 1409.11 378.647 1416.16 390.481C1423.2 402.316 1426.72 415.419 1426.72 429.79C1426.72 448.105 1420.81 463.603 1408.97 476.283C1397.14 488.963 1379.67 497.698 1356.56 502.489L1358.25 480.087C1383.33 484.877 1402.63 494.599 1416.16 509.251C1429.97 523.904 1436.87 541.938 1436.87 563.353C1436.87 579.696 1432.78 594.49 1424.61 607.733C1416.72 620.695 1405.17 630.98 1389.95 638.588C1375.02 646.196 1356.98 650 1335.85 650H1259.35ZM1208.63 650V351.596H1274.14V650H1208.63ZM1479.4 650V351.596H1545.76V650H1479.4ZM1603.23 650V351.596H1669.59V650H1603.23ZM1654.37 650V591.672H1801.88V650H1654.37ZM1840.15 650V351.596H1906.51V650H1840.15ZM2037.1 650V355.823H2103.46V650H2037.1ZM1943.69 409.502V351.596H2196.87V409.502H1943.69ZM2311.2 538.838L2196.24 351.596H2273.16L2361.5 502.911H2312.05L2400.38 351.596H2475.62L2359.81 538.838H2311.2ZM2303.17 650V508.406H2369.53V650H2303.17Z" fill="#C38EF1"/>
<path d="M2667.78 654.649C2643.26 654.649 2622.13 650.704 2604.38 642.815C2586.91 634.643 2570.85 622.386 2556.19 606.042L2599.31 563.353C2608.89 574.342 2619.45 582.937 2631.01 589.136C2642.84 595.053 2656.51 598.012 2672.01 598.012C2686.09 598.012 2696.94 595.476 2704.55 590.404C2712.44 585.332 2716.39 578.287 2716.39 569.27C2716.39 561.099 2713.85 554.477 2708.78 549.405C2703.71 544.333 2696.94 539.965 2688.49 536.302C2680.32 532.639 2671.16 529.117 2661.02 525.735C2651.15 522.354 2641.29 518.55 2631.43 514.323C2621.57 509.815 2612.41 504.32 2603.96 497.839C2595.78 491.077 2589.16 482.764 2584.09 472.902C2579.02 462.758 2576.48 450.078 2576.48 434.862C2576.48 416.546 2580.85 400.766 2589.58 387.523C2598.6 374.279 2611 364.276 2626.78 357.513C2642.56 350.469 2660.73 346.947 2681.3 346.947C2702.16 346.947 2721.18 350.61 2738.36 357.936C2755.83 365.262 2770.21 375.265 2781.48 387.945L2738.36 430.635C2729.35 421.336 2720.19 414.433 2710.89 409.924C2701.87 405.416 2691.59 403.162 2680.04 403.162C2668.48 403.162 2659.33 405.416 2652.56 409.924C2645.8 414.151 2642.42 420.35 2642.42 428.522C2642.42 436.13 2644.95 442.329 2650.03 447.119C2655.1 451.628 2661.72 455.572 2669.89 458.954C2678.35 462.335 2687.5 465.716 2697.37 469.098C2707.51 472.479 2717.51 476.424 2727.37 480.933C2737.24 485.441 2746.25 491.217 2754.43 498.262C2762.88 505.025 2769.64 513.76 2774.71 524.467C2779.79 534.893 2782.32 547.855 2782.32 563.353C2782.32 591.813 2772.18 614.214 2751.89 630.557C2731.6 646.619 2703.56 654.649 2667.78 654.649ZM2901.45 538.838L2786.49 351.596H2863.41L2951.75 502.911H2902.3L2990.63 351.596H3065.87L2950.06 538.838H2901.45ZM2893.42 650V508.406H2959.78V650H2893.42ZM3161.86 654.649C3137.34 654.649 3116.21 650.704 3098.46 642.815C3080.98 634.643 3064.92 622.386 3050.27 606.042L3093.38 563.353C3102.96 574.342 3113.53 582.937 3125.08 589.136C3136.92 595.053 3150.58 598.012 3166.08 598.012C3180.17 598.012 3191.02 595.476 3198.63 590.404C3206.52 585.332 3210.46 578.287 3210.46 569.27C3210.46 561.099 3207.93 554.477 3202.85 549.405C3197.78 544.333 3191.02 539.965 3182.57 536.302C3174.39 532.639 3165.24 529.117 3155.09 525.735C3145.23 522.354 3135.37 518.55 3125.51 514.323C3115.64 509.815 3106.49 504.32 3098.03 497.839C3089.86 491.077 3083.24 482.764 3078.17 472.902C3073.09 462.758 3070.56 450.078 3070.56 434.862C3070.56 416.546 3074.93 400.766 3083.66 387.523C3092.68 374.279 3105.08 364.276 3120.86 357.513C3136.64 350.469 3154.81 346.947 3175.38 346.947C3196.23 346.947 3215.25 350.61 3232.44 357.936C3249.91 365.262 3264.28 375.265 3275.55 387.945L3232.44 430.635C3223.42 421.336 3214.27 414.433 3204.97 409.924C3195.95 405.416 3185.67 403.162 3174.11 403.162C3162.56 403.162 3153.4 405.416 3146.64 409.924C3139.88 414.151 3136.5 420.35 3136.5 428.522C3136.5 436.13 3139.03 442.329 3144.1 447.119C3149.18 451.628 3155.8 455.572 3163.97 458.954C3172.42 462.335 3181.58 465.716 3191.44 469.098C3201.59 472.479 3211.59 476.424 3221.45 480.933C3231.31 485.441 3240.33 491.217 3248.5 498.262C3256.96 505.025 3263.72 513.76 3268.79 524.467C3273.86 534.893 3276.4 547.855 3276.4 563.353C3276.4 591.813 3266.25 614.214 3245.97 630.557C3225.68 646.619 3197.64 654.649 3161.86 654.649ZM3380.65 650V355.823H3447V650H3380.65ZM3287.24 409.502V351.596H3540.41V409.502H3287.24ZM3577.47 650V351.596H3643.83V650H3577.47ZM3628.19 650V592.517H3791.76V650H3628.19ZM3628.19 525.313V469.943H3776.97V525.313H3628.19ZM3628.19 408.656V351.596H3789.65V408.656H3628.19ZM3837.51 650V351.596H3884.85L4002.35 534.611H3978.26L4095.34 351.596H4143.1V650H4076.74V463.603L4088.58 466.562L4012.07 585.754H3968.12L3892.04 466.562L3903.45 463.603V650H3837.51Z" fill="white"/>
</svg>
